<svg xmlns="http://www.w3.org/2000/svg" viewBox="0 0 32 32">
  <rect width="32" height="32" rx="8" fill="#0276c4"/>
  <path d="M8 9.5a1.5 1.5 0 0 1 1.5-1.5H23a1 1 0 0 1 1 1v13.5a1 1 0 0 1-1 1H9.5A1.5 1.5 0 0 1 8 22V9.5z" fill="#fff" opacity="0.95"/>
  <path d="M24 10.5v13a1 1 0 0 0 1-1V9.5a1.5 1.5 0 0 0-1.5-1.5H9.5a1.5 1.5 0 0 0-1.5 1.5 1 1 0 0 1 1-1H23a1 1 0 0 1 1 1z" fill="#bae2fd" opacity="0.6"/>
  <rect x="11" y="12" width="10" height="2" rx="1" fill="#0b436e" opacity="0.85"/>
  <rect x="11" y="16" width="10" height="2" rx="1" fill="#0b436e" opacity="0.55"/>
  <rect x="11" y="20" width="6" height="2" rx="1" fill="#0b436e" opacity="0.35"/>
</svg>
